<?xml version="1.0" encoding="UTF-8" standalone="no"?>
<!-- Created with Inkscape (http://www.inkscape.org/) -->

<svg
   xmlns:dc="http://purl.org/dc/elements/1.1/"
   xmlns:cc="http://creativecommons.org/ns#"
   xmlns:rdf="http://www.w3.org/1999/02/22-rdf-syntax-ns#"
   xmlns:svg="http://www.w3.org/2000/svg"
   xmlns="http://www.w3.org/2000/svg"
   xmlns:sodipodi="http://sodipodi.sourceforge.net/DTD/sodipodi-0.dtd"
   xmlns:inkscape="http://www.inkscape.org/namespaces/inkscape"
   width="411.54999"
   height="411.54999"
   id="svg5725"
   version="1.1"
   inkscape:version="0.48.2 r9819"
   sodipodi:docname="New document 59">
  <defs
     id="defs5727" />
  <sodipodi:namedview
     id="base"
     pagecolor="#ffffff"
     bordercolor="#666666"
     borderopacity="1.0"
     inkscape:pageopacity="0.0"
     inkscape:pageshadow="2"
     inkscape:zoom="0.35"
     inkscape:cx="229.34674"
     inkscape:cy="126.4625"
     inkscape:document-units="px"
     inkscape:current-layer="layer1"
     showgrid="false"
     fit-margin-top="10"
     fit-margin-left="10"
     fit-margin-right="10"
     fit-margin-bottom="10"
     inkscape:window-width="1920"
     inkscape:window-height="1058"
     inkscape:window-x="-8"
     inkscape:window-y="-8"
     inkscape:window-maximized="1" />
  <metadata
     id="metadata5730">
    <rdf:RDF>
      <cc:Work
         rdf:about="">
        <dc:format>image/svg+xml</dc:format>
        <dc:type
           rdf:resource="http://purl.org/dc/dcmitype/StillImage" />
        <dc:title></dc:title>
      </cc:Work>
    </rdf:RDF>
  </metadata>
  <g
     inkscape:label="Layer 1"
     inkscape:groupmode="layer"
     id="layer1"
     transform="translate(-145.65325,-247.27465)">
    <g
       transform="matrix(-2.6456033e-8,1.5070386,-1.5070386,-2.6456033e-8,1540.9511,-56.394592)"
       id="g4799-0-7-6-0-0"
       style="fill:#441650;stroke:#ddafe9"
       inkscape:export-filename="C:\Users\wilkie\Pictures\lotus_avatar.png"
       inkscape:export-xdpi="10.57"
       inkscape:export-ydpi="10.57">
      <path
         sodipodi:nodetypes="ccacccc"
         inkscape:connector-curvature="0"
         id="path4648-5-0-7-0-9-8"
         d="m 314.30878,699.69468 c -3.36113,3.36113 -13.98266,11.85868 -7.9375,35.08303 10.35109,-6.17393 21.61773,-8.80467 32.96875,-8.55714 11.3068,0.24656 23.65603,3.92474 32.4375,9.9473 6.04516,-23.22435 -4.17012,-33.11206 -7.53125,-36.47319 -11.56406,-14.53668 -22.15345,-18.95866 -25.125,-30.53125 -3.13528,11.45869 -14.70913,19.33728 -24.8125,30.53125 z"
         style="fill:#441650;stroke:#ddafe9;stroke-width:5;stroke-miterlimit:4;stroke-opacity:1;stroke-dasharray:none;stroke-dashoffset:0" />
      <path
         sodipodi:nodetypes="ccacccc"
         inkscape:connector-curvature="0"
         id="path4648-5-7-1-7-3-4-8"
         d="m 404.02684,724.21119 c -4.59139,-1.23026 -17.26125,-6.18 -34.35155,10.66743 10.52233,5.87735 18.43393,14.31917 23.89508,24.27321 5.43987,9.91526 8.42909,22.44909 7.60413,33.06535 23.13546,-6.37691 26.59083,-20.16746 27.82109,-24.75885 6.8071,-17.28311 5.34195,-28.66478 13.87833,-37.02451 -11.49115,3.01411 -24.10114,-3.06984 -38.84708,-6.22263 z"
         style="fill:#441650;stroke:#ddafe9;stroke-width:5;stroke-miterlimit:4;stroke-opacity:1;stroke-dasharray:none;stroke-dashoffset:0" />
      <path
         sodipodi:nodetypes="ccacccc"
         inkscape:connector-curvature="0"
         id="path4648-5-7-5-46-7-8-7-0"
         d="m 427.64223,813.60848 c -1.23026,-4.59139 -3.27859,-18.03868 -26.41404,-24.4156 0.17123,12.05128 -3.1838,23.12384 -9.07368,32.83035 -5.86693,9.6687 -15.22694,18.52436 -24.83337,23.11805 17.0903,16.84744 30.76095,12.9446 35.35234,11.71435 18.37116,-2.74644 27.4954,-9.70613 39.00333,-6.49327 -8.35587,-8.44458 -9.39201,-22.40712 -14.03458,-36.75388 z"
         style="fill:#441650;stroke:#ddafe9;stroke-width:5;stroke-miterlimit:4;stroke-opacity:1;stroke-dasharray:none;stroke-dashoffset:0" />
      <path
         sodipodi:nodetypes="ccacccc"
         inkscape:connector-curvature="0"
         id="path4648-5-7-5-4-0-3-0-8-6"
         d="m 361.52776,878.92821 c 3.36113,-3.36113 13.98266,-11.85869 7.93751,-35.08303 -10.3511,6.17393 -21.61773,8.80467 -32.96876,8.55714 -11.3068,-0.24657 -23.65603,-3.92474 -32.4375,-9.94731 -6.04516,23.22435 4.17012,33.11207 7.53125,36.4732 11.56406,14.53667 22.15345,18.95865 25.125,30.53124 3.13528,-11.45869 14.70913,-19.33728 24.8125,-30.53124 z"
         style="fill:#441650;stroke:#ddafe9;stroke-width:5;stroke-miterlimit:4;stroke-opacity:1;stroke-dasharray:none;stroke-dashoffset:0" />
      <path
         sodipodi:nodetypes="ccacccc"
         inkscape:connector-curvature="0"
         id="path4648-5-7-5-4-1-7-3-1-3-8"
         d="m 272.0597,854.6617 c 4.59139,1.23026 17.26125,6.17999 34.35155,-10.66743 -10.52233,-5.87735 -18.43394,-14.31917 -23.89508,-24.27322 -5.43987,-9.91526 -8.42909,-22.44909 -7.60413,-33.06535 -23.13546,6.37691 -26.59083,20.16746 -27.82109,24.75885 -6.8071,17.28311 -5.34195,28.66478 -13.87833,37.02451 11.49115,-3.01411 24.10114,3.06984 38.84708,6.22264 z"
         style="fill:#441650;stroke:#ddafe9;stroke-width:5;stroke-miterlimit:4;stroke-opacity:1;stroke-dasharray:none;stroke-dashoffset:0" />
      <path
         sodipodi:nodetypes="ccacccc"
         inkscape:connector-curvature="0"
         id="path4648-5-7-5-4-1-2-1-5-2-5-1"
         d="m 248.63238,764.90272 c 1.23026,4.59139 3.27859,18.03868 26.41404,24.4156 -0.17123,-12.05128 3.18379,-23.12384 9.07368,-32.83035 5.86694,-9.6687 15.22694,-18.52435 24.83337,-23.11805 -17.09029,-16.84744 -30.76095,-12.9446 -35.35234,-11.71434 -18.37116,2.74643 -27.4954,9.70612 -39.00333,6.49327 8.35587,8.44457 9.39201,22.40711 14.03458,36.75387 z"
         style="fill:#441650;stroke:#ddafe9;stroke-width:5;stroke-miterlimit:4;stroke-opacity:1;stroke-dasharray:none;stroke-dashoffset:0" />
    </g>
    <g
       transform="matrix(0.65174623,1.1288576,-1.1288576,0.65174623,1022.0797,-443.02901)"
       id="g4799-0-7-1-9"
       style="fill:#ddafe9;stroke:#672178"
       inkscape:export-filename="C:\Users\wilkie\Pictures\lotus_avatar.png"
       inkscape:export-xdpi="10.57"
       inkscape:export-ydpi="10.57">
      <path
         sodipodi:nodetypes="ccacccc"
         inkscape:connector-curvature="0"
         id="path4648-5-0-7-2-8"
         d="m 314.30878,699.69468 c -3.36113,3.36113 -13.98266,11.85868 -7.9375,35.08303 10.35109,-6.17393 21.61773,-8.80467 32.96875,-8.55714 11.3068,0.24656 23.65603,3.92474 32.4375,9.9473 6.04516,-23.22435 -4.17012,-33.11206 -7.53125,-36.47319 -11.56406,-14.53668 -22.15345,-18.95866 -25.125,-30.53125 -3.13528,11.45869 -14.70913,19.33728 -24.8125,30.53125 z"
         style="fill:#ddafe9;stroke:#672178;stroke-width:5;stroke-miterlimit:4;stroke-opacity:1;stroke-dasharray:none;stroke-dashoffset:0" />
      <path
         sodipodi:nodetypes="ccacccc"
         inkscape:connector-curvature="0"
         id="path4648-5-7-1-7-0-9"
         d="m 404.02684,724.21119 c -4.59139,-1.23026 -17.26125,-6.18 -34.35155,10.66743 10.52233,5.87735 18.43393,14.31917 23.89508,24.27321 5.43987,9.91526 8.42909,22.44909 7.60413,33.06535 23.13546,-6.37691 26.59083,-20.16746 27.82109,-24.75885 6.8071,-17.28311 5.34195,-28.66478 13.87833,-37.02451 -11.49115,3.01411 -24.10114,-3.06984 -38.84708,-6.22263 z"
         style="fill:#ddafe9;stroke:#672178;stroke-width:5;stroke-miterlimit:4;stroke-opacity:1;stroke-dasharray:none;stroke-dashoffset:0" />
      <path
         sodipodi:nodetypes="ccacccc"
         inkscape:connector-curvature="0"
         id="path4648-5-7-5-46-7-1-7"
         d="m 427.64223,813.60848 c -1.23026,-4.59139 -3.27859,-18.03868 -26.41404,-24.4156 0.17123,12.05128 -3.1838,23.12384 -9.07368,32.83035 -5.86693,9.6687 -15.22694,18.52436 -24.83337,23.11805 17.0903,16.84744 30.76095,12.9446 35.35234,11.71435 18.37116,-2.74644 27.4954,-9.70613 39.00333,-6.49327 -8.35587,-8.44458 -9.39201,-22.40712 -14.03458,-36.75388 z"
         style="fill:#ddafe9;stroke:#672178;stroke-width:5;stroke-miterlimit:4;stroke-opacity:1;stroke-dasharray:none;stroke-dashoffset:0" />
      <path
         sodipodi:nodetypes="ccacccc"
         inkscape:connector-curvature="0"
         id="path4648-5-7-5-4-0-3-6-2"
         d="m 361.52776,878.92821 c 3.36113,-3.36113 13.98266,-11.85869 7.93751,-35.08303 -10.3511,6.17393 -21.61773,8.80467 -32.96876,8.55714 -11.3068,-0.24657 -23.65603,-3.92474 -32.4375,-9.94731 -6.04516,23.22435 4.17012,33.11207 7.53125,36.4732 11.56406,14.53667 22.15345,18.95865 25.125,30.53124 3.13528,-11.45869 14.70913,-19.33728 24.8125,-30.53124 z"
         style="fill:#ddafe9;stroke:#672178;stroke-width:5;stroke-miterlimit:4;stroke-opacity:1;stroke-dasharray:none;stroke-dashoffset:0" />
      <path
         sodipodi:nodetypes="ccacccc"
         inkscape:connector-curvature="0"
         id="path4648-5-7-5-4-1-7-3-4-2"
         d="m 272.0597,854.6617 c 4.59139,1.23026 17.26125,6.17999 34.35155,-10.66743 -10.52233,-5.87735 -18.43394,-14.31917 -23.89508,-24.27322 -5.43987,-9.91526 -8.42909,-22.44909 -7.60413,-33.06535 -23.13546,6.37691 -26.59083,20.16746 -27.82109,24.75885 -6.8071,17.28311 -5.34195,28.66478 -13.87833,37.02451 11.49115,-3.01411 24.10114,3.06984 38.84708,6.22264 z"
         style="fill:#ddafe9;stroke:#672178;stroke-width:5;stroke-miterlimit:4;stroke-opacity:1;stroke-dasharray:none;stroke-dashoffset:0" />
      <path
         sodipodi:nodetypes="ccacccc"
         inkscape:connector-curvature="0"
         id="path4648-5-7-5-4-1-2-1-5-0-8"
         d="m 248.63238,764.90272 c 1.23026,4.59139 3.27859,18.03868 26.41404,24.4156 -0.17123,-12.05128 3.18379,-23.12384 9.07368,-32.83035 5.86694,-9.6687 15.22694,-18.52435 24.83337,-23.11805 -17.09029,-16.84744 -30.76095,-12.9446 -35.35234,-11.71434 -18.37116,2.74643 -27.4954,9.70612 -39.00333,6.49327 8.35587,8.44457 9.39201,22.40711 14.03458,36.75387 z"
         style="fill:#ddafe9;stroke:#672178;stroke-width:5;stroke-miterlimit:4;stroke-opacity:1;stroke-dasharray:none;stroke-dashoffset:0" />
    </g>
    <g
       id="g4799-6-2"
       style="fill:#bc5fd3;stroke:#672178"
       transform="translate(13.327535,-336.34786)"
       inkscape:export-filename="C:\Users\wilkie\Pictures\lotus_avatar.png"
       inkscape:export-xdpi="10.57"
       inkscape:export-ydpi="10.57">
      <path
         sodipodi:nodetypes="ccacccc"
         inkscape:connector-curvature="0"
         id="path4648-5-1-8"
         d="m 314.30878,699.69468 c -3.36113,3.36113 -13.98266,11.85868 -7.9375,35.08303 10.35109,-6.17393 21.61773,-8.80467 32.96875,-8.55714 11.3068,0.24656 23.65603,3.92474 32.4375,9.9473 6.04516,-23.22435 -4.17012,-33.11206 -7.53125,-36.47319 -11.56406,-14.53668 -22.15345,-18.95866 -25.125,-30.53125 -3.13528,11.45869 -14.70913,19.33728 -24.8125,30.53125 z"
         style="fill:#bc5fd3;stroke:#672178;stroke-width:5;stroke-miterlimit:4;stroke-opacity:1;stroke-dasharray:none;stroke-dashoffset:0" />
      <path
         sodipodi:nodetypes="ccacccc"
         inkscape:connector-curvature="0"
         id="path4648-5-7-8-9"
         d="m 404.02684,724.21119 c -4.59139,-1.23026 -17.26125,-6.18 -34.35155,10.66743 10.52233,5.87735 18.43393,14.31917 23.89508,24.27321 5.43987,9.91526 8.42909,22.44909 7.60413,33.06535 23.13546,-6.37691 26.59083,-20.16746 27.82109,-24.75885 6.8071,-17.28311 5.34195,-28.66478 13.87833,-37.02451 -11.49115,3.01411 -24.10114,-3.06984 -38.84708,-6.22263 z"
         style="fill:#bc5fd3;stroke:#672178;stroke-width:5;stroke-miterlimit:4;stroke-opacity:1;stroke-dasharray:none;stroke-dashoffset:0" />
      <path
         sodipodi:nodetypes="ccacccc"
         inkscape:connector-curvature="0"
         id="path4648-5-7-5-9-0"
         d="m 427.64223,813.60848 c -1.23026,-4.59139 -3.27859,-18.03868 -26.41404,-24.4156 0.17123,12.05128 -3.1838,23.12384 -9.07368,32.83035 -5.86693,9.6687 -15.22694,18.52436 -24.83337,23.11805 17.0903,16.84744 30.76095,12.9446 35.35234,11.71435 18.37116,-2.74644 27.4954,-9.70613 39.00333,-6.49327 -8.35587,-8.44458 -9.39201,-22.40712 -14.03458,-36.75388 z"
         style="fill:#bc5fd3;stroke:#672178;stroke-width:5;stroke-miterlimit:4;stroke-opacity:1;stroke-dasharray:none;stroke-dashoffset:0" />
      <path
         sodipodi:nodetypes="ccacccc"
         inkscape:connector-curvature="0"
         id="path4648-5-7-5-4-8-7"
         d="m 361.52776,878.92821 c 3.36113,-3.36113 13.98266,-11.85869 7.93751,-35.08303 -10.3511,6.17393 -21.61773,8.80467 -32.96876,8.55714 -11.3068,-0.24657 -23.65603,-3.92474 -32.4375,-9.94731 -6.04516,23.22435 4.17012,33.11207 7.53125,36.4732 11.56406,14.53667 22.15345,18.95865 25.125,30.53124 3.13528,-11.45869 14.70913,-19.33728 24.8125,-30.53124 z"
         style="fill:#bc5fd3;stroke:#672178;stroke-width:5;stroke-miterlimit:4;stroke-opacity:1;stroke-dasharray:none;stroke-dashoffset:0" />
      <path
         sodipodi:nodetypes="ccacccc"
         inkscape:connector-curvature="0"
         id="path4648-5-7-5-4-1-4-8"
         d="m 272.0597,854.6617 c 4.59139,1.23026 17.26125,6.17999 34.35155,-10.66743 -10.52233,-5.87735 -18.43394,-14.31917 -23.89508,-24.27322 -5.43987,-9.91526 -8.42909,-22.44909 -7.60413,-33.06535 -23.13546,6.37691 -26.59083,20.16746 -27.82109,24.75885 -6.8071,17.28311 -5.34195,28.66478 -13.87833,37.02451 11.49115,-3.01411 24.10114,3.06984 38.84708,6.22264 z"
         style="fill:#bc5fd3;stroke:#672178;stroke-width:5;stroke-miterlimit:4;stroke-opacity:1;stroke-dasharray:none;stroke-dashoffset:0" />
      <path
         sodipodi:nodetypes="ccacccc"
         inkscape:connector-curvature="0"
         id="path4648-5-7-5-4-1-2-14-1"
         d="m 248.63238,764.90272 c 1.23026,4.59139 3.27859,18.03868 26.41404,24.4156 -0.17123,-12.05128 3.18379,-23.12384 9.07368,-32.83035 5.86694,-9.6687 15.22694,-18.52435 24.83337,-23.11805 -17.09029,-16.84744 -30.76095,-12.9446 -35.35234,-11.71434 -18.37116,2.74643 -27.4954,9.70612 -39.00333,6.49327 8.35587,8.44457 9.39201,22.40711 14.03458,36.75387 z"
         style="fill:#bc5fd3;stroke:#672178;stroke-width:5;stroke-miterlimit:4;stroke-opacity:1;stroke-dasharray:none;stroke-dashoffset:0" />
    </g>
    <g
       transform="matrix(0.8660254,0.5,-0.5,0.8660254,453.27246,-399.62181)"
       id="g4799-0-3-5"
       style="fill:#672178;stroke:#ddafe9"
       inkscape:export-filename="C:\Users\wilkie\Pictures\lotus_avatar.png"
       inkscape:export-xdpi="10.57"
       inkscape:export-ydpi="10.57">
      <path
         sodipodi:nodetypes="ccacccc"
         inkscape:connector-curvature="0"
         id="path4648-5-0-9-8"
         d="m 314.30878,699.69468 c -3.36113,3.36113 -13.98266,11.85868 -7.9375,35.08303 10.35109,-6.17393 21.61773,-8.80467 32.96875,-8.55714 11.3068,0.24656 23.65603,3.92474 32.4375,9.9473 6.04516,-23.22435 -4.17012,-33.11206 -7.53125,-36.47319 -11.56406,-14.53668 -22.15345,-18.95866 -25.125,-30.53125 -3.13528,11.45869 -14.70913,19.33728 -24.8125,30.53125 z"
         style="fill:#672178;stroke:#ddafe9;stroke-width:5;stroke-miterlimit:4;stroke-opacity:1;stroke-dasharray:none;stroke-dashoffset:0" />
      <path
         sodipodi:nodetypes="ccacccc"
         inkscape:connector-curvature="0"
         id="path4648-5-7-1-8-6"
         d="m 404.02684,724.21119 c -4.59139,-1.23026 -17.26125,-6.18 -34.35155,10.66743 10.52233,5.87735 18.43393,14.31917 23.89508,24.27321 5.43987,9.91526 8.42909,22.44909 7.60413,33.06535 23.13546,-6.37691 26.59083,-20.16746 27.82109,-24.75885 6.8071,-17.28311 5.34195,-28.66478 13.87833,-37.02451 -11.49115,3.01411 -24.10114,-3.06984 -38.84708,-6.22263 z"
         style="fill:#672178;stroke:#ddafe9;stroke-width:5;stroke-miterlimit:4;stroke-opacity:1;stroke-dasharray:none;stroke-dashoffset:0" />
      <path
         sodipodi:nodetypes="ccacccc"
         inkscape:connector-curvature="0"
         id="path4648-5-7-5-46-8-1"
         d="m 427.64223,813.60848 c -1.23026,-4.59139 -3.27859,-18.03868 -26.41404,-24.4156 0.17123,12.05128 -3.1838,23.12384 -9.07368,32.83035 -5.86693,9.6687 -15.22694,18.52436 -24.83337,23.11805 17.0903,16.84744 30.76095,12.9446 35.35234,11.71435 18.37116,-2.74644 27.4954,-9.70613 39.00333,-6.49327 -8.35587,-8.44458 -9.39201,-22.40712 -14.03458,-36.75388 z"
         style="fill:#672178;stroke:#ddafe9;stroke-width:5;stroke-miterlimit:4;stroke-opacity:1;stroke-dasharray:none;stroke-dashoffset:0" />
      <path
         sodipodi:nodetypes="ccacccc"
         inkscape:connector-curvature="0"
         id="path4648-5-7-5-4-0-0-2"
         d="m 361.52776,878.92821 c 3.36113,-3.36113 13.98266,-11.85869 7.93751,-35.08303 -10.3511,6.17393 -21.61773,8.80467 -32.96876,8.55714 -11.3068,-0.24657 -23.65603,-3.92474 -32.4375,-9.94731 -6.04516,23.22435 4.17012,33.11207 7.53125,36.4732 11.56406,14.53667 22.15345,18.95865 25.125,30.53124 3.13528,-11.45869 14.70913,-19.33728 24.8125,-30.53124 z"
         style="fill:#672178;stroke:#ddafe9;stroke-width:5;stroke-miterlimit:4;stroke-opacity:1;stroke-dasharray:none;stroke-dashoffset:0" />
      <path
         sodipodi:nodetypes="ccacccc"
         inkscape:connector-curvature="0"
         id="path4648-5-7-5-4-1-7-8-4"
         d="m 272.0597,854.6617 c 4.59139,1.23026 17.26125,6.17999 34.35155,-10.66743 -10.52233,-5.87735 -18.43394,-14.31917 -23.89508,-24.27322 -5.43987,-9.91526 -8.42909,-22.44909 -7.60413,-33.06535 -23.13546,6.37691 -26.59083,20.16746 -27.82109,24.75885 -6.8071,17.28311 -5.34195,28.66478 -13.87833,37.02451 11.49115,-3.01411 24.10114,3.06984 38.84708,6.22264 z"
         style="fill:#672178;stroke:#ddafe9;stroke-width:5;stroke-miterlimit:4;stroke-opacity:1;stroke-dasharray:none;stroke-dashoffset:0" />
      <path
         sodipodi:nodetypes="ccacccc"
         inkscape:connector-curvature="0"
         id="path4648-5-7-5-4-1-2-1-7-2"
         d="m 248.63238,764.90272 c 1.23026,4.59139 3.27859,18.03868 26.41404,24.4156 -0.17123,-12.05128 3.18379,-23.12384 9.07368,-32.83035 5.86694,-9.6687 15.22694,-18.52435 24.83337,-23.11805 -17.09029,-16.84744 -30.76095,-12.9446 -35.35234,-11.71434 -18.37116,2.74643 -27.4954,9.70612 -39.00333,6.49327 8.35587,8.44457 9.39201,22.40711 14.03458,36.75387 z"
         style="fill:#672178;stroke:#ddafe9;stroke-width:5;stroke-miterlimit:4;stroke-opacity:1;stroke-dasharray:none;stroke-dashoffset:0" />
    </g>
    <path
       sodipodi:type="arc"
       style="fill:#ddafe9;stroke:#cd87de;stroke-width:5;stroke-miterlimit:4;stroke-opacity:1;stroke-dasharray:none;stroke-dashoffset:0"
       id="path2985-2-5-7-5"
       sodipodi:cx="385.3732"
       sodipodi:cy="533.64886"
       sodipodi:rx="63.134533"
       sodipodi:ry="63.134533"
       d="m 448.50773,533.64886 a 63.134533,63.134533 0 1 1 -126.26906,0 63.134533,63.134533 0 1 1 126.26906,0 z"
       transform="translate(-34.169945,-80.733702)"
       inkscape:export-filename="C:\Users\wilkie\Pictures\lotus_avatar.png"
       inkscape:export-xdpi="10.57"
       inkscape:export-ydpi="10.57" />
    <path
       sodipodi:type="arc"
       style="fill:#d5e5ff;stroke:#5f5fd3;stroke-width:13;stroke-miterlimit:4;stroke-opacity:1;stroke-dasharray:none;stroke-dashoffset:0"
       id="path2985-5-8-8-8"
       sodipodi:cx="385.3732"
       sodipodi:cy="533.64886"
       sodipodi:rx="63.134533"
       sodipodi:ry="63.134533"
       d="m 448.50773,533.64886 a 63.134533,63.134533 0 1 1 -126.26906,0 63.134533,63.134533 0 1 1 126.26906,0 z"
       transform="matrix(0.87075378,0,0,0.87075378,15.863104,-11.627123)"
       inkscape:export-filename="C:\Users\wilkie\Pictures\lotus_avatar.png"
       inkscape:export-xdpi="10.57"
       inkscape:export-ydpi="10.57" />
  </g>
</svg>
